<svg enable-background="new 0 0 492 492" version="1.1" viewBox="0 0 492 492" xml:space="preserve" xmlns="http://www.w3.org/2000/svg">
		<path d="m198.61 246.1l184.06-184.06c5.068-5.056 7.856-11.816 7.856-19.024 0-7.212-2.788-13.968-7.856-19.032l-16.128-16.12c-5.06-5.072-11.824-7.864-19.032-7.864s-13.964 2.792-19.028 7.864l-219.15 219.14c-5.084 5.08-7.868 11.868-7.848 19.084-0.02 7.248 2.76 14.028 7.848 19.112l218.94 218.93c5.064 5.072 11.82 7.864 19.032 7.864 7.208 0 13.964-2.792 19.032-7.864l16.124-16.12c10.492-10.492 10.492-27.572 0-38.06l-183.85-183.85z"/>
</svg>
