<?xml version="1.0" encoding="utf-8"?>
<svg xmlns="http://www.w3.org/2000/svg"
	xmlns:xlink="http://www.w3.org/1999/xlink"
	width="25px" height="27px" viewBox="0 0 25 27">
<path fillRule="evenodd" d="M 23.26 27C 23.26 27 1.58 27 1.58 27 0.71 27-0 26.28-0 25.39-0 25.39-0 10.81-0 10.81-0 9.92 0.71 9.2 1.58 9.2 1.58 9.2 4.27 9.2 4.27 9.2 4.27 9.2 4.27 12.1 4.27 12.1 3.92 12.46 3.7 12.95 3.7 13.5 3.7 14.58 4.56 15.46 5.64 15.46 6.71 15.46 7.58 14.58 7.58 13.5 7.58 12.95 7.35 12.46 7 12.1 7 12.1 7 9.2 7 9.2 7 9.2 18.15 9.2 18.15 9.2 18.15 9.2 18.15 12.05 18.15 12.05 17.76 12.41 17.51 12.92 17.51 13.5 17.51 14.58 18.37 15.46 19.44 15.46 20.52 15.46 21.38 14.58 21.38 13.5 21.38 12.99 21.19 12.53 20.88 12.18 20.88 12.18 20.88 9.2 20.88 9.2 20.88 9.2 23.26 9.2 23.26 9.2 24.14 9.2 24.85 9.92 24.85 10.81 24.85 10.81 24.85 25.39 24.85 25.39 24.85 26.28 24.14 27 23.26 27ZM 19.51 14.31C 19.07 14.31 18.71 13.94 18.71 13.5 18.71 13.5 18.71 7.83 18.71 7.83 18.71 4.41 15.96 1.62 12.57 1.62 9.19 1.62 6.43 4.41 6.43 7.83 6.43 7.83 6.43 13.5 6.43 13.5 6.43 13.94 6.08 14.31 5.64 14.31 5.2 14.31 4.84 13.94 4.84 13.5 4.84 13.5 4.84 7.83 4.84 7.83 4.84 3.51 8.31-0 12.58-0 16.84-0 20.31 3.51 20.31 7.83 20.31 7.83 20.31 13.5 20.31 13.5 20.31 13.94 19.95 14.31 19.51 14.31Z" fill="rgb(255,255,255)"/></svg>