<?xml version="1.0" encoding="utf-8"?>
<svg xmlns="http://www.w3.org/2000/svg"
	xmlns:xlink="http://www.w3.org/1999/xlink"
	width="15px" height="27px" viewBox="0 0 15 27">
<path fillRule="evenodd" d="M 14.34 0.28C 14.34 0.28 10.76 0.27 10.76 0.27 6.75 0.27 4.15 2.79 4.15 6.7 4.15 6.7 4.15 9.66 4.15 9.66 4.15 9.66 0.56 9.66 0.56 9.66 0.25 9.66-0 9.9-0 10.2-0 10.2-0 14.49-0 14.49-0 14.79 0.25 15.02 0.56 15.02 0.56 15.02 4.15 15.02 4.15 15.02 4.15 15.02 4.15 25.86 4.15 25.86 4.15 26.15 4.41 26.39 4.72 26.39 4.72 26.39 9.4 26.39 9.4 26.39 9.71 26.39 9.97 26.15 9.97 25.86 9.97 25.86 9.97 15.02 9.97 15.02 9.97 15.02 14.17 15.02 14.17 15.02 14.48 15.02 14.73 14.79 14.73 14.49 14.73 14.49 14.73 10.2 14.73 10.2 14.73 10.06 14.67 9.92 14.57 9.82 14.46 9.72 14.32 9.66 14.17 9.66 14.17 9.66 9.97 9.66 9.97 9.66 9.97 9.66 9.97 7.15 9.97 7.15 9.97 5.94 10.27 5.33 11.93 5.33 11.93 5.33 14.34 5.33 14.34 5.33 14.65 5.33 14.9 5.09 14.9 4.8 14.9 4.8 14.9 0.81 14.9 0.81 14.9 0.52 14.65 0.28 14.34 0.28Z" fill="rgb(255,255,255)"/></svg>