<?xml version="1.0" encoding="utf-8"?>
<svg xmlns="http://www.w3.org/2000/svg"
	xmlns:xlink="http://www.w3.org/1999/xlink"
	width="27px" height="22px" viewBox="0 0 27 22">
<path fillRule="evenodd" d="M 24.51 11.6C 24.51 11.6 24.51 13.6 24.51 13.6 24.51 13.6 22.87 13.6 22.87 13.6 22.87 13.6 22.87 11.6 22.87 11.6 22.87 11.6 20.96 11.6 20.96 11.6 20.96 11.6 20.96 9.89 20.96 9.89 20.96 9.89 22.87 9.89 22.87 9.89 22.87 9.89 22.87 7.9 22.87 7.9 22.87 7.9 24.51 7.9 24.51 7.9 24.51 7.9 24.51 9.89 24.51 9.89 24.51 9.89 26.42 9.89 26.42 9.89 26.42 9.89 26.42 11.6 26.42 11.6 26.42 11.6 24.51 11.6 24.51 11.6ZM 10.35 21.5C 4.83 21.5 0.35 16.83 0.35 11.06 0.35 5.29 4.83 0.61 10.35 0.61 13.08 0.61 15.55 1.75 17.35 3.6 17.35 3.6 15.09 6.16 15.09 6.16 13.89 4.88 12.21 4.09 10.35 4.09 6.67 4.09 3.68 7.21 3.68 11.06 3.68 14.9 6.67 18.02 10.35 18.02 13.34 18.02 15.87 15.97 16.72 13.15 16.72 13.15 11.02 13.15 11.02 13.15 11.02 13.15 11.02 9.9 11.02 9.9 11.02 9.9 20.36 9.9 20.36 9.9 20.36 9.9 20.36 13.15 20.36 13.15 19.43 17.92 15.19 21.5 10.35 21.5Z" fill="rgb(255,255,255)"/></svg>