<?xml version="1.0" encoding="utf-8"?>
<svg xmlns="http://www.w3.org/2000/svg"
	xmlns:xlink="http://www.w3.org/1999/xlink"
	width="28px" height="28px" viewBox="0 0 28 28">
<path fillRule="evenodd" d="M 20.41 28C 20.41 28 8.1 28 8.1 28 3.92 28 0.52 24.53 0.52 20.28 0.52 20.28 0.52 7.74 0.52 7.74 0.52 3.48 3.92 0.01 8.1 0.01 8.1 0.01 20.41 0.01 20.41 0.01 24.6 0.01 28 3.48 28 7.74 28 7.74 28 20.28 28 20.28 28 24.53 24.6 28 20.41 28ZM 25.56 20.28C 25.56 20.28 25.56 7.74 25.56 7.74 25.56 4.85 23.25 2.5 20.41 2.5 20.41 2.5 8.1 2.5 8.1 2.5 5.26 2.5 2.95 4.85 2.95 7.74 2.95 7.74 2.95 20.28 2.95 20.28 2.95 23.16 5.26 25.52 8.1 25.52 8.1 25.52 20.41 25.52 20.41 25.52 23.25 25.52 25.56 23.16 25.56 20.28 25.56 20.28 25.56 20.28 25.56 20.28ZM 21.64 8.33C 21.17 8.33 20.7 8.14 20.37 7.8 20.04 7.46 19.85 6.99 19.85 6.51 19.85 6.03 20.04 5.56 20.37 5.22 20.7 4.88 21.17 4.69 21.64 4.69 22.11 4.69 22.57 4.88 22.9 5.22 23.23 5.56 23.42 6.03 23.42 6.51 23.42 6.99 23.23 7.46 22.9 7.8 22.57 8.14 22.11 8.33 21.64 8.33ZM 14.26 21.22C 10.35 21.22 7.18 17.98 7.18 14.01 7.18 10.03 10.35 6.8 14.26 6.8 18.16 6.8 21.34 10.03 21.34 14.01 21.34 17.98 18.16 21.22 14.26 21.22ZM 14.26 9.28C 11.7 9.28 9.61 11.4 9.61 14.01 9.61 16.61 11.7 18.73 14.26 18.73 16.82 18.73 18.9 16.61 18.9 14.01 18.9 11.4 16.82 9.28 14.26 9.28Z" fill="rgb(255,255,255)"/></svg>