<?xml version="1.0" encoding="utf-8"?>
<svg xmlns="http://www.w3.org/2000/svg"
	xmlns:xlink="http://www.w3.org/1999/xlink"
	width="27px" height="26px" viewBox="0 0 27 26">
<path fillRule="evenodd" d="M 26.23 22.6C 26.23 22.6 18.26 14.99 18.26 14.99 19.42 13.44 20.1 11.55 20.1 9.5 20.1 4.26 15.66 0.02 10.17 0.02 4.69 0.02 0.25 4.26 0.25 9.5 0.25 14.74 4.69 18.98 10.17 18.98 12.32 18.98 14.29 18.33 15.92 17.23 15.92 17.23 23.89 24.84 23.89 24.84 24.21 25.15 24.64 25.31 25.06 25.31 25.49 25.31 25.91 25.15 26.23 24.84 26.88 24.22 26.88 23.22 26.23 22.6ZM 15.57 13.15C 15.57 13.15 14.91 14.03 14.91 14.03 14.91 14.03 14 14.65 14 14.65 12.87 15.42 11.55 15.82 10.17 15.82 6.52 15.82 3.56 12.99 3.56 9.5 3.56 6.02 6.52 3.18 10.17 3.18 13.82 3.18 16.79 6.02 16.79 9.5 16.79 10.81 16.37 12.08 15.57 13.15Z" fill="rgb(255,255,255)"/></svg>