<?xml version="1.0" encoding="utf-8"?>
<svg xmlns="http://www.w3.org/2000/svg"
	xmlns:xlink="http://www.w3.org/1999/xlink"
	width="26px" height="22px" viewBox="0 0 26 22">
<path fillRule="evenodd" d="M 24.71 1.23C 23.72 1.83 22.63 2.27 21.47 2.51 20.54 1.48 19.22 0.84 17.75 0.84 14.94 0.84 12.66 3.2 12.66 6.12 12.66 6.53 12.7 6.93 12.79 7.32 8.56 7.1 4.8 5 2.29 1.81 1.85 2.58 1.6 3.49 1.6 4.46 1.6 6.29 2.5 7.9 3.87 8.85 3.03 8.82 2.25 8.58 1.56 8.19 1.56 8.19 1.56 8.25 1.56 8.25 1.56 10.81 3.32 12.94 5.65 13.43 5.22 13.55 4.77 13.61 4.31 13.61 3.98 13.61 3.66 13.58 3.35 13.52 3.99 15.61 5.87 17.14 8.1 17.18 6.36 18.6 4.16 19.44 1.78 19.44 1.37 19.44 0.96 19.41 0.56 19.37 2.82 20.86 5.49 21.74 8.37 21.74 17.74 21.74 22.86 13.7 22.86 6.72 22.86 6.72 22.85 6.04 22.85 6.04 23.85 5.3 24.71 4.37 25.39 3.31 24.48 3.73 23.5 4.02 22.47 4.14 23.52 3.49 24.33 2.46 24.71 1.23Z" fill="rgb(255,255,255)"/></svg>