<svg enable-background="new 0 0 95.481 95.481" version="1.1" viewBox="0 0 95.481 95.481" xml:space="preserve" xmlns="http://www.w3.org/2000/svg">
		<path d="m43.041 67.254c-7.402-0.772-14.076-2.595-19.79-7.064-0.709-0.556-1.441-1.092-2.088-1.713-2.501-2.402-2.753-5.153-0.774-7.988 1.693-2.426 4.535-3.075 7.489-1.682 0.572 0.27 1.117 0.607 1.639 0.969 10.649 7.317 25.278 7.519 35.967 0.329 1.059-0.812 2.191-1.474 3.503-1.812 2.551-0.655 4.93 0.282 6.299 2.514 1.564 2.549 1.544 5.037-0.383 7.016-2.956 3.034-6.511 5.229-10.461 6.761-3.735 1.448-7.826 2.177-11.875 2.661 0.611 0.665 0.899 0.992 1.281 1.376 5.498 5.524 11.02 11.025 16.5 16.566 1.867 1.888 2.257 4.229 1.229 6.425-1.124 2.4-3.64 3.979-6.107 3.81-1.563-0.108-2.782-0.886-3.865-1.977-4.149-4.175-8.376-8.273-12.441-12.527-1.183-1.237-1.752-1.003-2.796 0.071-4.174 4.297-8.416 8.528-12.683 12.735-1.916 1.889-4.196 2.229-6.418 1.15-2.362-1.145-3.865-3.556-3.749-5.979 0.08-1.639 0.886-2.891 2.011-4.014 5.441-5.433 10.867-10.88 16.295-16.322 0.359-0.362 0.694-0.746 1.217-1.305z"/>
		<path d="m47.55 48.329c-13.205-0.045-24.033-10.992-23.956-24.218 0.076-13.372 10.911-24.148 24.246-24.111 13.362 0.036 24.087 10.967 24.02 24.478-0.068 13.199-10.971 23.897-24.31 23.851zm12.001-24.186c-0.023-6.567-5.253-11.795-11.807-11.801-6.609-7e-3 -11.886 5.316-11.835 11.943 0.049 6.542 5.324 11.733 11.896 11.709 6.552-0.023 11.768-5.285 11.746-11.851z"/>
</svg>
